<svg width="50" height="52" viewBox="0 0 50 52" fill="none" xmlns="http://www.w3.org/2000/svg">
<path d="M26.5625 19.75C26.5625 18.8871 25.8629 18.1875 25 18.1875C24.1371 18.1875 23.4375 18.8871 23.4375 19.75V24.4375H18.75C17.8871 24.4375 17.1875 25.1371 17.1875 26C17.1875 26.8629 17.8871 27.5625 18.75 27.5625H23.4375V32.25C23.4375 33.1129 24.1371 33.8125 25 33.8125C25.8629 33.8125 26.5625 33.1129 26.5625 32.25V27.5625H31.25C32.1129 27.5625 32.8125 26.8629 32.8125 26C32.8125 25.1371 32.1129 24.4375 31.25 24.4375H26.5625V19.75Z" fill="#ffffff" id="id_101"></path>
<path d="M6.25 7.25C6.25 3.79822 9.04822 1 12.5 1H37.5C40.9518 1 43.75 3.79822 43.75 7.25V44.75C43.75 48.2018 40.9518 51 37.5 51H12.5C9.04822 51 6.25 48.2018 6.25 44.75V7.25ZM37.5 4.125H12.5C10.7741 4.125 9.375 5.52411 9.375 7.25V44.75C9.375 46.4759 10.7741 47.875 12.5 47.875H37.5C39.2259 47.875 40.625 46.4759 40.625 44.75V7.25C40.625 5.52411 39.2259 4.125 37.5 4.125Z" fill="#ffffff" id="id_102"></path>
<path d="M26.5625 19.75C26.5625 18.8871 25.8629 18.1875 25 18.1875C24.1371 18.1875 23.4375 18.8871 23.4375 19.75V24.4375H18.75C17.8871 24.4375 17.1875 25.1371 17.1875 26C17.1875 26.8629 17.8871 27.5625 18.75 27.5625H23.4375V32.25C23.4375 33.1129 24.1371 33.8125 25 33.8125C25.8629 33.8125 26.5625 33.1129 26.5625 32.25V27.5625H31.25C32.1129 27.5625 32.8125 26.8629 32.8125 26C32.8125 25.1371 32.1129 24.4375 31.25 24.4375H26.5625V19.75Z" stroke="#ffffff" id="id_103"></path>
<path d="M6.25 7.25C6.25 3.79822 9.04822 1 12.5 1H37.5C40.9518 1 43.75 3.79822 43.75 7.25V44.75C43.75 48.2018 40.9518 51 37.5 51H12.5C9.04822 51 6.25 48.2018 6.25 44.75V7.25ZM37.5 4.125H12.5C10.7741 4.125 9.375 5.52411 9.375 7.25V44.75C9.375 46.4759 10.7741 47.875 12.5 47.875H37.5C39.2259 47.875 40.625 46.4759 40.625 44.75V7.25C40.625 5.52411 39.2259 4.125 37.5 4.125Z" stroke="#ffffff" id="id_104"></path>
</svg>